<svg viewBox="0 0 420 512" fill="black" xmlns="http://www.w3.org/2000/svg">
  <path
    d="M209.824 511.9L0.297422 388.199C0.206403 388.144 0.131188 388.066 0.0790778 387.973C0.0269676 387.879 -0.000271696 387.773 2.04299e-06 387.665V125.287C-0.000202134 125.065 0.0579494 124.847 0.168669 124.654C0.279389 124.461 0.438814 124.301 0.631103 124.188L209.744 0.0977068C209.967 -0.0372164 210.189 -0.0324057 210.412 0.112155C218.427 5.36693 228.199 10.853 234.981 14.8573C267.716 34.1947 300.401 53.6116 333.035 73.108C361.616 90.1879 390.501 106.791 419.14 123.842C419.697 124.174 419.975 124.663 419.975 125.309C420.008 212.113 420.008 299.063 419.975 386.161C419.975 387.168 419.697 387.836 419.14 388.163C375.435 413.671 332.345 440.248 288.632 465.742C262.547 480.959 236.521 496.345 210.557 511.9C210.447 511.965 210.321 512 210.192 512C210.064 512 209.936 511.965 209.824 511.9ZM210.31 84.8174C223.14 92.4888 236.009 100.093 248.916 107.629C280.102 125.836 311.04 144.463 342.262 162.605C344.854 164.114 347.402 165.762 349.908 167.549C350.09 167.681 350.239 167.854 350.342 168.054C350.445 168.253 350.5 168.474 350.502 168.699C350.556 201.818 350.546 235.033 350.473 268.344C350.408 295.572 344.053 322.092 330.213 345.063C326.092 351.9 321.796 357.82 317.322 362.822C299.499 382.75 274.661 399.706 248.662 408.142C226.632 415.29 202.128 416.512 179.604 410.281C150.493 402.222 124.552 385.778 103.929 363.942C103.807 363.811 103.642 363.727 103.462 363.704C103.283 363.68 103.099 363.718 102.943 363.812L65.468 386.479C65.1682 386.662 65.1585 386.86 65.439 387.072C66.4401 387.833 67.5548 388.578 68.7831 389.305C110.223 413.842 151.748 438.239 193.357 462.496C198.646 465.583 204.166 469.197 209.592 472.608C209.81 472.743 210.027 472.746 210.245 472.616C226.08 463.255 241.815 453.707 257.672 444.39C300.548 419.203 343.234 393.637 385.728 367.694C385.819 367.639 385.894 367.56 385.947 367.467C385.999 367.373 386.026 367.267 386.026 367.159L385.946 144.586C385.946 144.473 385.92 144.361 385.871 144.259C385.822 144.156 385.751 144.066 385.663 143.993C383.816 142.451 382.215 141.28 380.861 140.48C323.965 106.861 267.083 73.1899 210.216 39.4688C210.086 39.3925 209.938 39.3522 209.788 39.3522C209.637 39.3522 209.489 39.3925 209.36 39.4688C164.859 65.8511 120.321 92.2575 75.7471 118.688C62.3512 126.624 48.6047 134.934 34.5076 143.617C34.3104 143.739 34.148 143.909 34.0362 144.11C33.9243 144.312 33.8669 144.538 33.8693 144.767L33.9781 363.819C33.9775 363.89 33.9959 363.959 34.0315 364.019C34.067 364.08 34.1183 364.13 34.1799 364.164C34.2416 364.198 34.3113 364.215 34.3817 364.213C34.4522 364.211 34.5207 364.19 34.5802 364.152L83.3348 334.062C83.439 333.997 83.5158 333.897 83.5506 333.779C83.5854 333.662 83.5757 333.536 83.5234 333.425C75.9598 316.917 71.4647 299.796 70.0381 282.063C69.7673 278.7 69.627 273.888 69.6174 267.629C69.569 234.626 69.5327 201.683 69.5085 168.8C69.5037 168.241 69.7407 167.817 70.2194 167.528C88.8842 156.151 107.933 145.374 126.787 134.17C154.425 117.748 182.208 101.55 209.665 84.8174C209.877 84.6873 210.093 84.6873 210.31 84.8174ZM261.966 155.399L210.818 124.709C210.513 124.527 210.163 124.433 209.807 124.438C209.45 124.443 209.102 124.547 208.801 124.738C192.037 135.406 174.765 145.323 157.74 155.63C157.053 156.045 157.056 156.457 157.747 156.866L209.65 187.542C209.887 187.682 210.124 187.682 210.361 187.542L261.966 156.65C262.075 156.585 262.164 156.493 262.226 156.383C262.288 156.274 262.321 156.15 262.321 156.024C262.321 155.899 262.288 155.775 262.226 155.665C262.164 155.556 262.075 155.464 261.966 155.399ZM210.013 227.867C209.972 227.894 209.923 227.907 209.873 227.907C209.823 227.907 209.774 227.894 209.73 227.867L122.623 176.252C122.42 176.132 122.217 176.132 122.014 176.252L105.278 186.118C104.877 186.354 104.543 186.69 104.312 187.093C104.08 187.496 103.958 187.952 103.958 188.417L103.922 208.373C103.922 208.564 103.968 208.751 104.056 208.921C104.145 209.091 104.273 209.238 104.43 209.349C109.082 212.626 113.947 215.746 119.025 218.709C148.621 235.994 178.632 253.681 209.055 271.77C209.602 272.098 210.151 272.098 210.702 271.77L315.451 209.754C315.532 209.706 315.6 209.631 315.648 209.537C315.695 209.443 315.719 209.334 315.719 209.219L315.712 187.701C315.712 187.514 315.663 187.329 315.571 187.164C315.478 187 315.344 186.861 315.182 186.762L297.664 176.028C297.48 175.912 297.294 175.91 297.105 176.021L210.013 227.867ZM104.27 249.429C104.096 249.327 104.006 249.376 104.002 249.573C103.726 259.466 103.859 269.397 104.401 279.367C106.49 317.618 126.975 348.677 160.25 366.877C185.588 380.733 216.353 384.152 243.672 373.83C266.725 365.128 286.391 350.527 299.796 329.652C308.588 315.958 313.746 300.815 315.269 284.224C316.227 273.823 315.828 261.123 315.908 249.862C315.913 249.332 315.685 249.204 315.226 249.479L210.383 312.363C210.184 312.483 209.984 312.483 209.781 312.363L104.27 249.429Z" />
</svg>